# xmcd CD database file
#
# Track frame offsets:
#	150
#	12755
#	25768
#	38176
#	52594
#	63709
#	75161
#	88111
#	99916
#	113204
#	126319
#	138614
#
# Disc length: 2019 seconds
#
# Revision: 2
# Processed by: cddbd v1.5PL3 Copyright (c) Steve Scherf et al.
# Submitted via: CDex 1.50
#
DISCID=8f07e10c
DTITLE=Big Bill Broonzy - Good Time Tonight
DYEAR=1990
DGENRE=Blues
TTITLE0=I Can't Be Satisfied
TTITLE1=Too Too Train Blues
TTITLE2=Hattie Blues
TTITLE3=Horny Frog
TTITLE4=I Belive I'll Go Back Home
TTITLE5=Good Time Tonight
TTITLE6=Going Back To Arkansas
TTITLE7=Too Many Drivers
TTITLE8=Woodie Woodie
TTITLE9=Whiskey And Good Time Blues
TTITLE10=Merry Go Round Blues
TTITLE11=You've Got To Hit The Right Lick
EXTD=YEAR: 1990
EXTT0=
EXTT1=
EXTT2=
EXTT3=
EXTT4=
EXTT5=
EXTT6=
EXTT7=
EXTT8=
EXTT9=
EXTT10=
EXTT11=
PLAYORDER=
